<svg xmlns="http://www.w3.org/2000/svg" xmlns:xlink="http://www.w3.org/1999/xlink">
	<defs>
		<symbol viewBox="0 0 100 101" id="spinner">
			<path d="M100 50.5908C100 78.2051 77.6142 100.591 50 100.591C22.3858 100.591 0 78.2051 0 50.5908C0 22.9766 22.3858 0.59082 50 0.59082C77.6142 0.59082 100 22.9766 100 50.5908ZM9.08144 50.5908C9.08144 73.1895 27.4013 91.5094 50 91.5094C72.5987 91.5094 90.9186 73.1895 90.9186 50.5908C90.9186 27.9921 72.5987 9.67226 50 9.67226C27.4013 9.67226 9.08144 27.9921 9.08144 50.5908Z" fill="currentColor"/>
        	<path d="M93.9676 39.0409C96.393 38.4038 97.8624 35.9116 97.0079 33.5539C95.2932 28.8227 92.871 24.3692 89.8167 20.348C85.8452 15.1192 80.8826 10.7238 75.2124 7.41289C69.5422 4.10194 63.2754 1.94025 56.7698 1.05124C51.7666 0.367541 46.6976 0.446843 41.7345 1.27873C39.2613 1.69328 37.813 4.19778 38.4501 6.62326C39.0873 9.04874 41.5694 10.4717 44.0505 10.1071C47.8511 9.54855 51.7191 9.52689 55.5402 10.0491C60.8642 10.7766 65.9928 12.5457 70.6331 15.2552C75.2735 17.9648 79.3347 21.5619 82.5849 25.841C84.9175 28.9121 86.7997 32.2913 88.1811 35.8758C89.083 38.2158 91.5421 39.6781 93.9676 39.0409Z" fill="currentFill"/>
		</symbol>
		<symbol viewBox="0 0 500 500" id="barbell">
			<path d="M25.974,197.999c0.02,9.59,0.17,19.172,0.285,28.757h-9.562C7.592,226.755,0,234.352,0,243.452
				c0,9.097,7.592,16.694,16.697,16.694h9.889c0.132,10.516,0.292,21.022,0.312,31.539c0.048,21.53,33.441,21.535,33.395,0
				c-0.068-31.229-0.858-62.454-0.926-93.691C59.321,176.468,25.926,176.468,25.974,197.999z"
			/>
			<path d="M393.3,162.75c0.681,21.226,1.274,42.457,2.041,63.672c-97.41-2.173-194.57,10.991-291.953,5.637
				c-0.566-21.559-1.272-43.117-2.288-64.67c-1.008-21.439-34.406-21.539-33.393,0c2.679,56.861,3.651,113.754,3.712,170.678
				c0.021,21.53,33.416,21.536,33.396,0c-0.028-24.196-0.267-48.388-0.683-72.574c97.601,5.271,194.981-7.968,292.61-5.642
				c1.138,23.933,2.641,47.845,4.905,71.721c2.017,21.247,35.425,21.439,33.394,0c-5.322-56.142-6.551-112.487-8.349-168.822
				C426.012,141.275,392.614,141.207,393.3,162.75z"
			/>
			<path d="M479.768,224.572c4.428-0.683,0.122-0.048-0.696,0.025c-1.274,0.114-2.563,0.16-3.854,0.218
				c-0.96,0.041-1.92,0.02-2.885,0.036c-0.741-11.397-1.238-22.811-1.111-34.267c0.243-21.543-33.149-21.522-33.394,0
				c-0.411,36.336,5.185,72.272,6.495,108.529c0.771,21.47,34.175,21.546,33.393,0c-0.497-13.721-1.604-27.391-2.772-41.061
				c4.565-0.213,9.104-0.568,13.7-1.274c9.014-1.392,13.863-12.543,11.664-20.541C497.688,226.707,488.761,223.188,479.768,224.572z"
			/>
		</symbol>
		<symbol viewBox="0 0 297 297" id="dumbbell">
			<path d="M215.094,49.11l-4.784,9.568c-2.304,4.607-7.013,7.518-12.164,7.518H69.956 c-5.151,0-9.86-2.91-12.164-7.518l-4.784-9.568c-2.304-4.607-7.013-7.518-12.164-7.518H13.643 c-7.511,0-13.599,6.089-13.599,13.599v71.214c0,7.511,6.089,13.599,13.599,13.599h27.202c5.151,0,9.86-2.91,12.164-7.518 l4.784-9.568c2.304-4.607,7.013-7.518,12.164-7.518h128.19c5.151,0,9.86,2.91,12.164,7.518l4.784,9.568 c2.304,4.607,7.013,7.518,12.164,7.518h27.202c7.511,0,13.599-6.089,13.599-13.599V55.192c0-7.511-6.089-13.599-13.599-13.599 h-27.202C222.107,41.592,217.398,44.503,215.094,49.11z"></path>
			<path d="M244.035,164.512l-4.784,9.568c-2.304,4.607-7.013,7.518-12.164,7.518H98.853 c-5.151,0-9.86-2.91-12.164-7.518l-4.784-9.568c-2.304-4.607-7.013-7.518-12.164-7.518H42.539 c-7.511,0-13.599,6.089-13.599,13.599v71.214c0,7.511,6.089,13.599,13.599,13.599h27.202c5.151,0,9.86-2.91,12.164-7.518 l4.784-9.568c2.304-4.607,7.013-7.518,12.164-7.518h128.233c5.151,0,9.86,2.91,12.164,7.518l4.784,9.568 c2.304,4.607,7.013,7.518,12.164,7.518h27.202c7.511,0,13.599-6.089,13.599-13.599v-71.214c0-7.511-6.089-13.599-13.599-13.599 h-27.202C251.047,156.994,246.338,159.905,244.035,164.512z"></path> 
			<path d="M290.285,158.88v48.37c0,7.11-5.764,12.873-12.873,12.873h-25.75 c-4.876,0-9.334-2.755-11.514-7.116l-4.529-9.057c-2.181-4.361-6.638-7.116-11.514-7.116H102.716 c-4.876,0-9.334,2.755-11.514,7.116l-4.529,9.057c-2.181,4.361-6.638,7.116-11.514,7.116h-25.75 c-7.11,0-12.873-5.764-12.873-12.873v-48.844c-4.495,2.219-7.595,6.836-7.595,12.188v71.214c0,7.511,6.089,13.599,13.599,13.599 h27.202c5.151,0,9.86-2.91,12.164-7.518l4.784-9.568c2.304-4.607,7.013-7.518,12.164-7.518h128.233 c5.151,0,9.86,2.91,12.164,7.518l4.784,9.568c2.304,4.607,7.013,7.518,12.164,7.518H283.4c7.511,0,13.6-6.089,13.6-13.599v-71.214 C297,165.599,294.298,161.244,290.285,158.88z"></path>
			<path d="M261.345,43.478v48.37c0,7.11-5.764,12.873-12.873,12.873h-25.75 c-4.876,0-9.334-2.755-11.514-7.116l-4.529-9.057c-2.181-4.361-6.638-7.116-11.514-7.116H73.776 c-4.876,0-9.334,2.755-11.514,7.116l-4.529,9.057c-2.181,4.361-6.638,7.116-11.514,7.116h-25.75 c-7.11,0-12.873-5.764-12.873-12.873V43.003C3.1,45.222,0,49.839,0,55.192v71.214c0,7.511,6.089,13.599,13.599,13.599h27.202 c5.151,0,9.86-2.91,12.164-7.518l4.784-9.568c2.304-4.607,7.013-7.518,12.164-7.518h128.233c5.151,0,9.86,2.91,12.164,7.518 l4.784,9.568c2.304,4.607,7.013,7.518,12.164,7.518h27.202c7.511,0,13.6-6.089,13.6-13.599V55.192 C268.06,50.196,265.358,45.842,261.345,43.478z"></path>
		</symbol>
		<symbol viewBox="0 0 512 512" id="machine">
			<path d="M472.6,336.067c0-8.269-3.557-15.868-9.189-21.333c5.632-5.466,9.189-13.064,9.189-21.333 c0-16.213-13.653-29.867-29.867-29.867h-4.267v-179.2c0-30.378-22.045-55.056-51.2-59.131V7.533c0-5.12-3.413-8.533-8.533-8.533 S370.2,2.413,370.2,7.533V24.6h-59.156l-0.577-17.067c0-5.12-4.267-8.533-8.533-8.533h-51.2c-4.267,0-8.533,4.267-8.533,8.533 L241.593,24.6h-67.659c-42.667,0-76.8,34.133-76.8,76.8v17.067c0,1.707,0,3.413,0.853,4.267l24.747,41.244v31.289h-4.267 c-11.947,0-21.333,9.387-21.333,20.48V242.2c0,11.947,9.387,21.333,21.333,21.333h25.6c11.947,0,21.333-9.387,22.187-20.48V216.6 c0-11.947-9.387-21.333-21.333-21.333h-5.12v-31.289l24.747-41.244c0.853-0.853,0.853-2.56,0.853-4.267V101.4 c0-5.12,3.413-8.533,8.533-8.533h65.23L229.749,357.4H63.853c-14.507,0-26.453,11.947-26.453,27.307v14.507 c0,14.507,11.947,26.453,26.453,26.453h16.213v76.8c0,5.12,3.413,8.533,8.533,8.533c4.267,0,8.533-3.413,8.533-8.533v-76.8H227.32 l-2.186,61.44c0,5.973,2.56,12.8,6.827,17.067c4.267,4.267,10.24,6.827,17.067,6.827h54.613c5.973,0,11.947-2.56,16.213-6.827 c5.12-4.267,6.827-10.24,6.827-17.067l-13.328-394.24h6.502c3.413,25.6,23.893,46.933,50.347,50.347v120.32h-4.267 c-16.213,0-29.867,13.653-29.867,29.867c0,8.269,3.557,15.868,9.189,21.333c-5.632,5.466-9.189,13.064-9.189,21.333 s3.557,15.868,9.189,21.333c-5.632,5.466-9.189,13.064-9.189,21.333c0,16.213,13.653,29.867,29.867,29.867h76.8 c16.213,0,29.867-13.653,29.867-29.867c0-8.269-3.557-15.868-9.189-21.333C469.043,351.934,472.6,344.336,472.6,336.067z M149.187,215.747V242.2c0,2.56-1.707,4.267-4.267,4.267h-26.453c-2.56,0-4.267-1.707-4.267-3.413V216.6 c0-2.56,1.707-4.267,4.267-4.267v-0.853h8.765c1.169,0.55,2.525,0.853,4.035,0.853c1.258,0,2.513-0.304,3.662-0.853h9.992 C147.48,211.48,149.187,213.187,149.187,215.747z M148.333,101.4v14.507l-17.067,28.16l-17.067-28.16V101.4 c0-33.28,26.453-59.733,59.733-59.733h66.56L239.64,75.8h-65.707C159.427,75.8,148.333,86.893,148.333,101.4z M54.467,398.36 v-14.507c0-5.12,4.267-9.387,9.387-9.387h164.693l-0.853,34.133H63.853C58.733,408.6,54.467,404.333,54.467,398.36z M378.733,84.333c4.267,0,8.533-3.413,8.533-8.533v-6.212c5.086,2.963,8.533,8.466,8.533,14.746 c0,9.387-7.68,17.067-17.067,17.067s-17.067-7.68-17.067-17.067c0-6.28,3.447-11.782,8.533-14.746V75.8 C370.2,80.92,373.613,84.333,378.733,84.333z M307.907,492.227c-0.853,0.853-2.56,1.707-4.267,1.707h-54.613 c-1.707,0-3.413,0-4.267-1.707s-1.707-3.413-1.707-5.12l16.213-471.04H293.4l16.213,471.04 C309.613,489.667,308.76,491.373,307.907,492.227z M378.733,127c-23.893,0-42.667-18.773-42.667-42.667 c0-5.12-3.413-8.533-8.533-8.533h-14.759l-1.154-34.133H370.2v9.621c-14.679,3.814-25.6,17.216-25.6,33.046 c0,18.773,15.36,34.133,34.133,34.133s34.133-15.36,34.133-34.133c0-15.829-10.921-29.232-25.6-33.046v-8.796 c19.681,3.86,34.133,20.878,34.133,41.841v179.2h-34.133v-128C387.267,130.413,383.853,127,378.733,127z M353.133,293.4 c0-6.827,5.973-12.8,12.8-12.8h12.8h51.2h12.8c6.827,0,12.8,5.973,12.8,12.8s-5.973,12.8-12.8,12.8h-76.8 C359.107,306.2,353.133,300.227,353.133,293.4z M455.533,378.733c0,6.827-5.973,12.8-12.8,12.8h-76.8 c-6.827,0-12.8-5.973-12.8-12.8s5.973-12.8,12.8-12.8h76.8C449.56,365.933,455.533,371.907,455.533,378.733z M365.933,348.867 c-6.827,0-12.8-5.973-12.8-12.8s5.973-12.8,12.8-12.8h76.8c6.827,0,12.8,5.973,12.8,12.8s-5.973,12.8-12.8,12.8H365.933z"></path>
		</symbol>
		<symbol viewBox="2 2 20 20" id="cross">
			<path d="M19 5L5 19M5.00001 5L19 19" stroke-width="1.5" stroke-linecap="round" stroke-linejoin="round" />
		</symbol>
	</defs>
</svg>